<svg id="visual" viewBox="0 0 960 540" width="960" height="540" xmlns="http://www.w3.org/2000/svg" xmlns:xlink="http://www.w3.org/1999/xlink" version="1.1"><rect x="0" y="0" width="960" height="540" fill="#000"></rect><path d="M0 279L12.3 276.8C24.7 274.7 49.3 270.3 74 274.7C98.7 279 123.3 292 148 303.8C172.7 315.7 197.3 326.3 221.8 331C246.3 335.7 270.7 334.3 295.2 325C319.7 315.7 344.3 298.3 369 288.5C393.7 278.7 418.3 276.3 443 271.3C467.7 266.3 492.3 258.7 517 261.3C541.7 264 566.3 277 591 293.5C615.7 310 640.3 330 664.8 334.8C689.3 339.7 713.7 329.3 738.2 316.2C762.7 303 787.3 287 812 282.2C836.7 277.3 861.3 283.7 886 282.7C910.7 281.7 935.3 273.3 947.7 269.2L960 265L960 0L947.7 0C935.3 0 910.7 0 886 0C861.3 0 836.7 0 812 0C787.3 0 762.7 0 738.2 0C713.7 0 689.3 0 664.8 0C640.3 0 615.7 0 591 0C566.3 0 541.7 0 517 0C492.3 0 467.7 0 443 0C418.3 0 393.7 0 369 0C344.3 0 319.7 0 295.2 0C270.7 0 246.3 0 221.8 0C197.3 0 172.7 0 148 0C123.3 0 98.7 0 74 0C49.3 0 24.7 0 12.3 0L0 0Z" fill="#038626"></path><path d="M0 200L12.3 209.3C24.7 218.7 49.3 237.3 74 248.3C98.7 259.3 123.3 262.7 148 261.5C172.7 260.3 197.3 254.7 221.8 251.2C246.3 247.7 270.7 246.3 295.2 240.2C319.7 234 344.3 223 369 218.2C393.7 213.3 418.3 214.7 443 226.5C467.7 238.3 492.3 260.7 517 269.5C541.7 278.3 566.3 273.7 591 269C615.7 264.3 640.3 259.7 664.8 262.7C689.3 265.7 713.7 276.3 738.2 273.5C762.7 270.7 787.3 254.3 812 244.2C836.7 234 861.3 230 886 236C910.7 242 935.3 258 947.7 266L960 274L960 0L947.7 0C935.3 0 910.7 0 886 0C861.3 0 836.7 0 812 0C787.3 0 762.7 0 738.2 0C713.7 0 689.3 0 664.8 0C640.3 0 615.7 0 591 0C566.3 0 541.7 0 517 0C492.3 0 467.7 0 443 0C418.3 0 393.7 0 369 0C344.3 0 319.7 0 295.2 0C270.7 0 246.3 0 221.8 0C197.3 0 172.7 0 148 0C123.3 0 98.7 0 74 0C49.3 0 24.7 0 12.3 0L0 0Z" fill="#049e2e"></path><path d="M0 205L12.3 201.2C24.7 197.3 49.3 189.7 74 192C98.7 194.3 123.3 206.7 148 201.8C172.7 197 197.3 175 221.8 164.2C246.3 153.3 270.7 153.7 295.2 152.8C319.7 152 344.3 150 369 156.5C393.7 163 418.3 178 443 189.8C467.7 201.7 492.3 210.3 517 204C541.7 197.7 566.3 176.3 591 170.2C615.7 164 640.3 173 664.8 184.8C689.3 196.7 713.7 211.3 738.2 211.7C762.7 212 787.3 198 812 189.2C836.7 180.3 861.3 176.7 886 178.5C910.7 180.3 935.3 187.7 947.7 191.3L960 195L960 0L947.7 0C935.3 0 910.7 0 886 0C861.3 0 836.7 0 812 0C787.3 0 762.7 0 738.2 0C713.7 0 689.3 0 664.8 0C640.3 0 615.7 0 591 0C566.3 0 541.7 0 517 0C492.3 0 467.7 0 443 0C418.3 0 393.7 0 369 0C344.3 0 319.7 0 295.2 0C270.7 0 246.3 0 221.8 0C197.3 0 172.7 0 148 0C123.3 0 98.7 0 74 0C49.3 0 24.7 0 12.3 0L0 0Z" fill="#06b636"></path><path d="M0 159L12.3 153.3C24.7 147.7 49.3 136.3 74 129.2C98.7 122 123.3 119 148 124.5C172.7 130 197.3 144 221.8 147.5C246.3 151 270.7 144 295.2 144.7C319.7 145.3 344.3 153.7 369 150.3C393.7 147 418.3 132 443 122.7C467.7 113.3 492.3 109.7 517 113.7C541.7 117.7 566.3 129.3 591 131.7C615.7 134 640.3 127 664.8 120C689.3 113 713.7 106 738.2 104.2C762.7 102.3 787.3 105.7 812 110.5C836.7 115.3 861.3 121.7 886 125.2C910.7 128.7 935.3 129.3 947.7 129.7L960 130L960 0L947.7 0C935.3 0 910.7 0 886 0C861.3 0 836.7 0 812 0C787.3 0 762.7 0 738.2 0C713.7 0 689.3 0 664.8 0C640.3 0 615.7 0 591 0C566.3 0 541.7 0 517 0C492.3 0 467.7 0 443 0C418.3 0 393.7 0 369 0C344.3 0 319.7 0 295.2 0C270.7 0 246.3 0 221.8 0C197.3 0 172.7 0 148 0C123.3 0 98.7 0 74 0C49.3 0 24.7 0 12.3 0L0 0Z" fill="#08cf3e"></path><path d="M0 62L12.3 66.2C24.7 70.3 49.3 78.7 74 76.5C98.7 74.3 123.3 61.7 148 61.5C172.7 61.3 197.3 73.7 221.8 79.7C246.3 85.7 270.7 85.3 295.2 87.5C319.7 89.7 344.3 94.3 369 90.2C393.7 86 418.3 73 443 72.5C467.7 72 492.3 84 517 90.3C541.7 96.7 566.3 97.3 591 89.2C615.7 81 640.3 64 664.8 60.7C689.3 57.3 713.7 67.7 738.2 71C762.7 74.3 787.3 70.7 812 70C836.7 69.3 861.3 71.7 886 72.8C910.7 74 935.3 74 947.7 74L960 74L960 0L947.7 0C935.3 0 910.7 0 886 0C861.3 0 836.7 0 812 0C787.3 0 762.7 0 738.2 0C713.7 0 689.3 0 664.8 0C640.3 0 615.7 0 591 0C566.3 0 541.7 0 517 0C492.3 0 467.7 0 443 0C418.3 0 393.7 0 369 0C344.3 0 319.7 0 295.2 0C270.7 0 246.3 0 221.8 0C197.3 0 172.7 0 148 0C123.3 0 98.7 0 74 0C49.3 0 24.7 0 12.3 0L0 0Z" fill="#0be847"></path></svg>