<svg id="visual" viewBox="0 0 960 540" width="960" height="540" xmlns="http://www.w3.org/2000/svg" xmlns:xlink="http://www.w3.org/1999/xlink" version="1.1"><path d="M0 337L137 337L137 316L274 316L274 241L411 241L411 316L549 316L549 253L686 253L686 225L823 225L823 286L960 286L960 336L960 541L960 541L823 541L823 541L686 541L686 541L549 541L549 541L411 541L411 541L274 541L274 541L137 541L137 541L0 541Z" fill="#8d0606"></path><path d="M0 319L137 319L137 397L274 397L274 314L411 314L411 322L549 322L549 333L686 333L686 392L823 392L823 356L960 356L960 379L960 541L960 541L823 541L823 541L686 541L686 541L549 541L549 541L411 541L411 541L274 541L274 541L137 541L137 541L0 541Z" fill="#c50306"></path><path d="M0 451L137 451L137 451L274 451L274 419L411 419L411 485L549 485L549 445L686 445L686 463L823 463L823 406L960 406L960 464L960 541L960 541L823 541L823 541L686 541L686 541L549 541L549 541L411 541L411 541L274 541L274 541L137 541L137 541L0 541Z" fill="#ff0000"></path></svg>