<svg id="visual" viewBox="0 0 960 540" width="960" height="540" xmlns="http://www.w3.org/2000/svg" xmlns:xlink="http://www.w3.org/1999/xlink" version="1.1"><rect x="0" y="0" width="960" height="540" fill="#000000"></rect><path d="M0 238L12.3 270.7C24.7 303.3 49.3 368.7 74 369.2C98.7 369.7 123.3 305.3 148 289.7C172.7 274 197.3 307 221.8 333.3C246.3 359.7 270.7 379.3 295.2 405.2C319.7 431 344.3 463 369 467.5C393.7 472 418.3 449 443 413.5C467.7 378 492.3 330 517 312.3C541.7 294.7 566.3 307.3 591 325.5C615.7 343.7 640.3 367.3 664.8 351.2C689.3 335 713.7 279 738.2 282.3C762.7 285.7 787.3 348.3 812 359.5C836.7 370.7 861.3 330.3 886 302.8C910.7 275.3 935.3 260.7 947.7 253.3L960 246L960 541L947.7 541C935.3 541 910.7 541 886 541C861.3 541 836.7 541 812 541C787.3 541 762.7 541 738.2 541C713.7 541 689.3 541 664.8 541C640.3 541 615.7 541 591 541C566.3 541 541.7 541 517 541C492.3 541 467.7 541 443 541C418.3 541 393.7 541 369 541C344.3 541 319.7 541 295.2 541C270.7 541 246.3 541 221.8 541C197.3 541 172.7 541 148 541C123.3 541 98.7 541 74 541C49.3 541 24.7 541 12.3 541L0 541Z" fill="#0be847" stroke-linecap="round" stroke-linejoin="miter"></path></svg>